# xmcd
#
# Track frame offsets: 
#        151
#        18691
#        37907
#        56074
#        74131
#        92532
#        110421
#        127858
#        146101
#        165140
#
# Disc length: 2432 seconds
#
# Revision: 0
# Processed by: cddbd v1.5.1PL2 Copyright (c) Steve Scherf et al.
# Submitted via: ExactAudioCopy v0.95b4
#
DISCID=84097e0a
DTITLE=ร็อคแสลง - ขอแฟนผมคืน
DYEAR=2006
DGENRE=Country
TTITLE0=ขอแฟนผมคืน
TTITLE1=เขตอภัยทานใจ
TTITLE2=อวสานขาเร็อค
TTITLE3=จอบฮีกสาวหอ
TTITLE4=หนุ่มเมืองช้าง
TTITLE5=โทรผิดจีบต่อ
TTITLE6=จิ๊กโก๋หลังห้อง
TTITLE7=เกรด 4 วิชาอกหัก
TTITLE8=สาวอินเตอร์เน็ต
TTITLE9=ลาแม่ไปกินเหล้า
EXTD=
EXTT0=
EXTT1=
EXTT2=
EXTT3=
EXTT4=
EXTT5=
EXTT6=
EXTT7=
EXTT8=
EXTT9=
PLAYORDER=
